<svg width="1299" height="1172" viewBox="0 0 1299 1172" fill="none" xmlns="http://www.w3.org/2000/svg">
<path d="M650.018 457.264V587.1M650.018 846.773V847.422" stroke="#B9B9B9" stroke-width="129.836" stroke-linecap="round" stroke-linejoin="round"/>
<path d="M195.603 1106.45H1104.46C1125.64 1106.3 1146.47 1100.97 1165.12 1090.92C1183.77 1080.88 1199.68 1066.42 1211.46 1048.81C1223.24 1031.21 1230.53 1010.99 1232.7 989.915C1234.87 968.842 1231.85 947.559 1223.91 927.921L762.988 132.674C751.76 112.38 735.301 95.4648 715.322 83.6858C695.343 71.9068 672.574 65.6943 649.381 65.6943C626.188 65.6943 603.419 71.9068 583.44 83.6858C563.461 95.4648 547.002 112.38 535.774 132.674L74.8552 927.921C67.0612 947.11 63.9706 967.884 65.8413 988.51C67.7121 1009.14 74.4899 1029.02 85.609 1046.49C96.7281 1063.96 111.866 1078.52 129.758 1088.95C147.651 1099.38 167.779 1105.38 188.462 1106.45" stroke="#B9B9B9" stroke-width="129.836" stroke-linecap="round" stroke-linejoin="round"/>
</svg>
