<svg width="1040" height="1300" viewBox="0 0 1040 1300" fill="none" xmlns="http://www.w3.org/2000/svg">
<path d="M649.854 65.7544V325.427C649.854 342.644 656.694 359.157 668.869 371.331C681.043 383.506 697.555 390.345 714.773 390.345H974.445" stroke="#B9B9B9" stroke-width="129.836" stroke-linecap="round" stroke-linejoin="round"/>
<path d="M844.609 1234.28H195.427C160.992 1234.28 127.968 1220.6 103.619 1196.25C79.27 1171.9 65.5908 1138.88 65.5908 1104.45V195.591C65.5908 161.156 79.27 128.132 103.619 103.783C127.968 79.4335 160.992 65.7544 195.427 65.7544H649.854L974.445 390.345V1104.45C974.445 1138.88 960.766 1171.9 936.417 1196.25C912.068 1220.6 879.044 1234.28 844.609 1234.28Z" stroke="#B9B9B9" stroke-width="129.836" stroke-linecap="round" stroke-linejoin="round"/>
</svg>
