<svg width="752" height="752" viewBox="0 0 752 752" fill="none" xmlns="http://www.w3.org/2000/svg">
<path fill-rule="evenodd" clip-rule="evenodd" d="M641.224 110.106C494.824 -36.2469 256.424 -36.2939 110.024 110.106C-36.3764 256.553 -36.3294 494.906 110.024 641.353C256.424 787.706 494.776 787.753 641.224 641.353C787.671 494.859 787.624 256.553 641.224 110.106ZM167.859 583.518C53.0824 468.788 52.9883 282.2 167.529 167.659C282.071 53.0708 468.659 53.212 583.435 167.941C698.165 282.671 698.212 469.306 583.718 583.847C469.082 698.388 282.541 698.247 167.859 583.518Z" fill="#1F64E7"/>
<path fill-rule="evenodd" clip-rule="evenodd" d="M477.365 519.141C468.8 519.141 462.353 515.753 459.106 512.506L375.953 429.447L296.188 509.212C293.082 512.318 285.882 516.083 276.282 516.083C269.082 516.083 258.212 513.918 247.906 503.612C237.506 493.259 235.2 483 235.153 476.318C234.965 467.471 238.4 460.788 241.741 457.494L322.871 376.318L243.812 297.353C236.659 290.153 230.682 267.847 249.459 249.118C260.047 238.53 270.447 236.318 277.365 236.318C285.976 236.318 292.423 239.706 295.576 242.953L375.953 323.236L455.765 243.424C458.965 240.271 466.118 236.553 475.718 236.553C482.965 236.553 493.835 238.718 504.141 249.071C521.929 266.906 518.353 287.188 510.306 295.188L429.082 376.412L510.823 458.106C513.976 461.306 517.694 468.459 517.694 478.059C517.694 485.306 515.576 496.083 505.223 506.388C494.635 516.93 484.282 519.141 477.365 519.141Z" fill="#1F64E7"/>
</svg>
