<svg width="1300" height="1300" viewBox="0 0 1300 1300" fill="none" xmlns="http://www.w3.org/2000/svg">
<path d="M650.019 1039.53H650.668" stroke="#1F64E7" stroke-width="129.836" stroke-linecap="round" stroke-linejoin="round"/>
<path d="M466.422 855.947C515.118 807.265 581.155 779.918 650.01 779.918C718.866 779.918 784.903 807.265 833.599 855.947" stroke="#1F64E7" stroke-width="129.836" stroke-linecap="round" stroke-linejoin="round"/>
<path d="M282.762 672.293C351.603 603.257 438.563 555.096 533.606 533.368M803.86 543.43C884.53 568.621 957.796 613.2 1017.25 673.267" stroke="#1F64E7" stroke-width="129.836" stroke-linecap="round" stroke-linejoin="round"/>
<path d="M99.1963 488.681C165.636 422.103 243.584 368.107 329.266 329.307M530.577 269.582C651.656 250.808 775.455 260.858 891.92 298.917C1008.38 336.975 1114.23 401.968 1200.86 488.616" stroke="#1F64E7" stroke-width="129.836" stroke-linecap="round" stroke-linejoin="round"/>
<path d="M65.7549 65.7549L1234.28 1234.28" stroke="#1F64E7" stroke-width="129.836" stroke-linecap="round" stroke-linejoin="round"/>
</svg>
